<svg width="47" height="44" viewBox="0 0 47 44" fill="none" xmlns="http://www.w3.org/2000/svg">
<path d="M46.5 39.7515C46.5 37.2975 45.1658 35.073 43.0605 33.885C43.3455 33.0075 43.5 32.0835 43.5 31.1348C43.5 27.4552 41.1847 24.114 37.7385 22.8218L37.5 22.7318V21.3345C37.9432 21.5925 38.451 21.7515 39 21.7515H45V15.7515H39C38.451 15.7515 37.9432 15.9105 37.5 16.1685V15.7515C37.5 14.5508 36.9172 13.4288 35.9595 12.7275C35.7653 11.4705 34.6852 10.5015 33.375 10.5015L24.2033 10.5007C25.2765 9.5565 26.0093 8.23875 26.196 6.75H28.4978C29.7383 6.75 30.7478 5.7405 30.7478 4.5C30.7478 3.2595 29.7383 2.25 28.4978 2.25H24.9172C23.7825 0.8385 22.071 0 20.2477 0C16.9395 0 14.2477 2.69175 14.2477 6C14.2477 8.2245 15.4672 10.1655 17.2703 11.202C15.7035 11.9767 14.4817 13.3388 13.8915 15.0015H2.25C1.0095 15.0015 0 16.011 0 17.2515V26.2515C0 27.492 1.0095 28.5015 2.25 28.5015H4.58325C3.6075 29.4555 3 30.783 3 32.2515V33.771C2.09475 34.4557 1.5 35.5312 1.5 36.7515C1.5 38.8192 3.18225 40.5015 5.25 40.5015H6.82575C7.1745 42.2108 8.68875 43.5015 10.5 43.5015C12.3112 43.5015 13.8255 42.2108 14.1742 40.5015H34.5758C34.9245 42.2108 36.4388 43.5015 38.25 43.5015C40.0612 43.5015 41.5755 42.2108 41.9242 40.5015H46.5V39.7515ZM42 31.1348C42 33.1058 41.2327 34.959 39.8385 36.3525L37.1895 39.0015H34.5V15.4883C34.956 15.27 35.337 14.9273 35.601 14.5005C35.8485 14.8673 36 15.2963 36 15.7515V23.7713L37.212 24.2257C40.0763 25.2997 42 28.0763 42 31.1348ZM31.4123 36.2955L29.28 27.2325C28.725 24.8707 26.82 23.0865 24.4253 22.6875L24 22.6163L23.9985 15.7515H33V39.0015H30.972C31.3125 38.4757 31.4993 37.8652 31.4985 37.224V37.044C31.4985 36.795 31.4692 36.5437 31.4123 36.2955ZM43.5 20.2515H42V17.2515H43.5V20.2515ZM39 17.2515H40.5V20.2515H39C38.1727 20.2515 37.5 19.5788 37.5 18.7515C37.5 17.9242 38.1727 17.2515 39 17.2515ZM29.2485 4.5C29.2485 4.91325 28.9125 5.25 28.4985 5.25H22.212L22.3403 4.99425C22.7243 4.227 23.4953 3.75 24.3533 3.75H28.4985C28.9125 3.75 29.2485 4.08675 29.2485 4.5ZM20.2485 1.5C21.2797 1.5 22.263 1.86075 23.0513 2.48925C22.1737 2.8125 21.4342 3.45075 20.9985 4.323L20.535 5.25H15.816C16.1752 3.12525 18.0232 1.5 20.2485 1.5ZM15.816 6.75H24.6803C24.3218 8.87475 22.4737 10.5 20.2477 10.5C18.0217 10.5 16.1752 8.87475 15.816 6.75ZM14.9985 17.2515C14.9985 14.3558 17.3542 12 20.25 12L33.375 12.0015C33.9953 12.0015 34.5 12.5063 34.5 13.1265C34.5 13.7468 33.9953 14.2515 33.375 14.2515H19.5V15.7515H22.4985L22.5 23.8868L24.1792 24.1672C25.9747 24.4657 27.4035 25.8045 27.8197 27.5752L29.9513 36.636C29.9828 36.7718 29.9985 36.9082 29.9985 37.044V37.2248C29.9985 37.6995 29.814 38.1457 29.4788 38.481C29.1427 38.817 28.6973 39.0015 28.2225 39.0015C27.4058 39.0015 26.6978 38.448 26.499 37.656L24.546 29.8417C24.1275 28.1692 22.632 27.0015 20.9078 27.0015L18.7477 27.0007C16.68 27.0007 14.9985 25.3185 14.9985 23.2508V17.2515ZM25.4707 39.0015H22.5V32.2515C22.5 30.7837 21.8925 29.4562 20.9183 28.5022C21.948 28.5067 22.8412 29.2057 23.0917 30.2048L25.0448 38.019C25.1333 38.376 25.2802 38.706 25.4707 39.0015ZM2.25 27.0015C1.836 27.0015 1.5 26.6655 1.5 26.2515V17.2515C1.5 16.8383 1.836 16.5015 2.25 16.5015H13.5427C13.515 16.7483 13.4985 16.998 13.4985 17.2515V23.2508C13.4985 24.7193 14.1067 26.0475 15.0817 27.0015H14.25H8.25H2.25ZM10.5 42.0015C9.5235 42.0015 8.6985 41.3722 8.388 40.5015H12.6112C12.3015 41.3722 11.4765 42.0015 10.5 42.0015ZM18 39.0015H5.25C4.0095 39.0015 3 37.992 3 36.7515C3 35.511 4.0095 34.5015 5.25 34.5015H15.75C16.9905 34.5015 18 35.511 18 36.7515V39.0015ZM15.75 33.0015H5.25C4.9935 33.0015 4.74225 33.0278 4.5 33.0773V32.2515C4.5 30.1838 6.18225 28.5015 8.25 28.5015H14.25H17.25C19.3177 28.5015 21 30.1838 21 32.2515V39.0015H19.5V36.7515C19.5 34.6838 17.8177 33.0015 15.75 33.0015ZM38.25 42.0015C37.2735 42.0015 36.4485 41.3722 36.138 40.5015H40.3612C40.0515 41.3722 39.2265 42.0015 38.25 42.0015ZM39.3105 39.0015L40.899 37.413C41.5403 36.7717 42.069 36.0487 42.4808 35.2695C43.818 36.084 44.724 37.4527 44.9468 39.0015H39.3105Z" fill="#B79C10"/>
</svg>
